<svg width="15" height="15" viewBox="0 0 15 15" fill="none" xmlns="http://www.w3.org/2000/svg">
<path d="M7.50001 0.241943C3.49153 0.241943 0.241943 3.49153 0.241943 7.50001C0.241943 11.5085 3.49153 14.7581 7.50001 14.7581C11.5085 14.7581 14.7581 11.5085 14.7581 7.50001C14.7581 3.49153 11.5085 0.241943 7.50001 0.241943Z" fill="#FF6243"/>
<path d="M7.5 0C3.35792 0 0 3.35792 0 7.5C0 11.6421 3.35792 15 7.5 15C11.6421 15 15 11.6421 15 7.5C14.9952 3.35981 11.6402 0.00484343 7.5 0ZM7.5 14.5161C3.62513 14.5161 0.483871 11.3749 0.483871 7.5C0.483871 3.62513 3.62513 0.483871 7.5 0.483871C11.3749 0.483871 14.5161 3.62513 14.5161 7.5C14.5119 11.3731 11.3731 14.5119 7.5 14.5161Z" fill="#231F20"/>
<path d="M10.9214 4.07848C10.8269 3.98409 10.6738 3.98409 10.5793 4.07848L7.49995 7.15784L4.42059 4.07848C4.35987 4.01563 4.26985 3.99035 4.18527 4.01256C4.10069 4.03465 4.03465 4.10069 4.01256 4.18527C3.99035 4.26985 4.01563 4.35987 4.07848 4.42059L7.15784 7.49995L4.07848 10.5793C4.01563 10.64 3.99035 10.73 4.01256 10.8146C4.03465 10.8992 4.10069 10.9653 4.18527 10.9873C4.26985 11.0096 4.35987 10.9843 4.42059 10.9214L7.49995 7.84206L10.5793 10.9214C10.6743 11.0131 10.8251 11.0118 10.9185 10.9185C11.0118 10.8251 11.0131 10.6743 10.9214 10.5793L7.84206 7.49995L10.9214 4.42059C11.0158 4.32608 11.0158 4.17298 10.9214 4.07848Z" fill="#231F20"/>
</svg>
